<mxfile host="Electron" modified="2023-05-15T07:26:31.231Z" agent="Mozilla/5.0 (Windows NT 10.0; Win64; x64) AppleWebKit/537.36 (KHTML, like Gecko) draw.io/21.2.8 Chrome/112.0.5615.165 Electron/24.2.0 Safari/537.36" etag="oQ4W-i_gjbwrHk4BEig-" version="21.2.8" type="device">
  <diagram name="Pagina-1" id="G-bYvO6kpTzwApkv6mZt">
    <mxGraphModel dx="1036" dy="614" grid="1" gridSize="10" guides="1" tooltips="1" connect="1" arrows="1" fold="1" page="1" pageScale="1" pageWidth="827" pageHeight="1169" math="0" shadow="0">
      <root>
        <mxCell id="0" />
        <mxCell id="1" parent="0" />
        <mxCell id="TB7D-jdjEKz6KaCKtkXO-1" value="charmander" style="swimlane;fontStyle=1;align=center;verticalAlign=top;childLayout=stackLayout;horizontal=1;startSize=26;horizontalStack=0;resizeParent=1;resizeParentMax=0;resizeLast=0;collapsible=1;marginBottom=0;whiteSpace=wrap;html=1;" vertex="1" parent="1">
          <mxGeometry x="330" y="130" width="300" height="254" as="geometry" />
        </mxCell>
        <mxCell id="TB7D-jdjEKz6KaCKtkXO-2" value="+ name:string&lt;br&gt;+ type: string&lt;br&gt;+ weakness: string&lt;br&gt;+ hp : int" style="text;strokeColor=none;fillColor=none;align=left;verticalAlign=top;spacingLeft=4;spacingRight=4;overflow=hidden;rotatable=0;points=[[0,0.5],[1,0.5]];portConstraint=eastwest;whiteSpace=wrap;html=1;" vertex="1" parent="TB7D-jdjEKz6KaCKtkXO-1">
          <mxGeometry y="26" width="300" height="64" as="geometry" />
        </mxCell>
        <mxCell id="TB7D-jdjEKz6KaCKtkXO-3" value="" style="line;strokeWidth=1;fillColor=none;align=left;verticalAlign=middle;spacingTop=-1;spacingLeft=3;spacingRight=3;rotatable=0;labelPosition=right;points=[];portConstraint=eastwest;strokeColor=inherit;" vertex="1" parent="TB7D-jdjEKz6KaCKtkXO-1">
          <mxGeometry y="90" width="300" height="8" as="geometry" />
        </mxCell>
        <mxCell id="TB7D-jdjEKz6KaCKtkXO-4" value="+ getName(): string" style="text;strokeColor=none;fillColor=none;align=left;verticalAlign=top;spacingLeft=4;spacingRight=4;overflow=hidden;rotatable=0;points=[[0,0.5],[1,0.5]];portConstraint=eastwest;whiteSpace=wrap;html=1;" vertex="1" parent="TB7D-jdjEKz6KaCKtkXO-1">
          <mxGeometry y="98" width="300" height="26" as="geometry" />
        </mxCell>
        <mxCell id="TB7D-jdjEKz6KaCKtkXO-5" value="+ setName(string name): void" style="text;strokeColor=none;fillColor=none;align=left;verticalAlign=top;spacingLeft=4;spacingRight=4;overflow=hidden;rotatable=0;points=[[0,0.5],[1,0.5]];portConstraint=eastwest;whiteSpace=wrap;html=1;" vertex="1" parent="TB7D-jdjEKz6KaCKtkXO-1">
          <mxGeometry y="124" width="300" height="26" as="geometry" />
        </mxCell>
        <mxCell id="TB7D-jdjEKz6KaCKtkXO-6" value="+ getType():: string" style="text;strokeColor=none;fillColor=none;align=left;verticalAlign=top;spacingLeft=4;spacingRight=4;overflow=hidden;rotatable=0;points=[[0,0.5],[1,0.5]];portConstraint=eastwest;whiteSpace=wrap;html=1;" vertex="1" parent="TB7D-jdjEKz6KaCKtkXO-1">
          <mxGeometry y="150" width="300" height="26" as="geometry" />
        </mxCell>
        <mxCell id="TB7D-jdjEKz6KaCKtkXO-7" value="+ getWeakness(): string" style="text;strokeColor=none;fillColor=none;align=left;verticalAlign=top;spacingLeft=4;spacingRight=4;overflow=hidden;rotatable=0;points=[[0,0.5],[1,0.5]];portConstraint=eastwest;whiteSpace=wrap;html=1;" vertex="1" parent="TB7D-jdjEKz6KaCKtkXO-1">
          <mxGeometry y="176" width="300" height="26" as="geometry" />
        </mxCell>
        <mxCell id="TB7D-jdjEKz6KaCKtkXO-8" value="+ getHp(): int" style="text;strokeColor=none;fillColor=none;align=left;verticalAlign=top;spacingLeft=4;spacingRight=4;overflow=hidden;rotatable=0;points=[[0,0.5],[1,0.5]];portConstraint=eastwest;whiteSpace=wrap;html=1;" vertex="1" parent="TB7D-jdjEKz6KaCKtkXO-1">
          <mxGeometry y="202" width="300" height="26" as="geometry" />
        </mxCell>
        <mxCell id="TB7D-jdjEKz6KaCKtkXO-9" value="+ BattleCry(): void" style="text;strokeColor=none;fillColor=none;align=left;verticalAlign=top;spacingLeft=4;spacingRight=4;overflow=hidden;rotatable=0;points=[[0,0.5],[1,0.5]];portConstraint=eastwest;whiteSpace=wrap;html=1;" vertex="1" parent="TB7D-jdjEKz6KaCKtkXO-1">
          <mxGeometry y="228" width="300" height="26" as="geometry" />
        </mxCell>
      </root>
    </mxGraphModel>
  </diagram>
</mxfile>
